<svg width="6" height="8" viewBox="0 0 6 8" fill="none" xmlns="http://www.w3.org/2000/svg">
<path d="M6 3C6 4.65675 3 7.5 3 7.5C3 7.5 0 4.65675 0 3C0 2.20435 0.316071 1.44129 0.87868 0.87868C1.44129 0.316071 2.20435 0 3 0C3.79565 0 4.55871 0.316071 5.12132 0.87868C5.68393 1.44129 6 2.20435 6 3Z" fill="#FA712D"/>
<path d="M3 3.30039C3.11935 3.30039 3.23381 3.25298 3.3182 3.16859C3.40259 3.0842 3.45 2.96974 3.45 2.85039C3.45 2.73104 3.40259 2.61658 3.3182 2.53219C3.23381 2.4478 3.11935 2.40039 3 2.40039C2.88066 2.40039 2.7662 2.4478 2.68181 2.53219C2.59741 2.61658 2.55 2.73104 2.55 2.85039C2.55 2.96974 2.59741 3.0842 2.68181 3.16859C2.7662 3.25298 2.88066 3.30039 3 3.30039Z" fill="white" stroke="white" stroke-width="1.25" stroke-linecap="round" stroke-linejoin="round"/>
</svg>
