<svg width="20" height="20" viewBox="0 0 20 20" fill="none" xmlns="http://www.w3.org/2000/svg">
<path fill-rule="evenodd" clip-rule="evenodd" d="M10.8088 6.06208C10.8088 5.27661 11.4456 4.63986 12.2311 4.63986C13.0165 4.63986 13.6533 5.27661 13.6533 6.06208C13.6533 6.84755 13.0165 7.4843 12.2311 7.4843C11.4456 7.4843 10.8088 6.84755 10.8088 6.06208ZM9.29315 6.77392L2.71991 6.77384C2.27808 6.77383 1.91992 6.41566 1.91992 5.97383C1.91993 5.532 2.2781 5.17383 2.71993 5.17384L9.34145 5.17392C9.7208 3.93822 10.871 3.03986 12.2311 3.03986C13.5909 3.03986 14.7409 3.9379 15.1205 5.17326L17.2976 5.17306C17.7395 5.17302 18.0977 5.53116 18.0977 5.97299C18.0977 6.41481 17.7396 6.77302 17.2978 6.77306L15.1691 6.77325C14.8493 8.09922 13.6552 9.0843 12.2311 9.0843C10.8071 9.0843 9.6132 8.09955 9.29315 6.77392Z" fill="#252B5C"/>
<path fill-rule="evenodd" clip-rule="evenodd" d="M9.20901 13.8843C9.20901 13.0988 8.57226 12.4621 7.78679 12.4621C7.00132 12.4621 6.36457 13.0988 6.36457 13.8843C6.36457 14.6698 7.00132 15.3065 7.78679 15.3065C8.57226 15.3065 9.20901 14.6698 9.20901 13.8843ZM10.7247 14.5961L17.2979 14.596C17.7397 14.596 18.0979 14.2379 18.0979 13.796C18.0979 13.3542 17.7397 12.996 17.2979 12.996L10.6764 12.9961C10.297 11.7604 9.14683 10.8621 7.78679 10.8621C6.42699 10.8621 5.27694 11.7601 4.89738 12.9955L2.72019 12.9953C2.27836 12.9952 1.92015 13.3534 1.92011 13.7952C1.92007 14.237 2.27821 14.5952 2.72004 14.5953L4.84872 14.5955C5.16853 15.9214 6.36262 16.9065 7.78679 16.9065C9.21072 16.9065 10.4046 15.9217 10.7247 14.5961Z" fill="#252B5C"/>
</svg>
