<svg width="20" height="20" viewBox="0 0 20 20" fill="none" xmlns="http://www.w3.org/2000/svg">
<path d="M9.99992 1.6665C5.55825 5.45817 3.33325 8.73317 3.33325 11.4998C3.33325 15.6498 6.49992 18.3332 9.99992 18.3332C13.4999 18.3332 16.6666 15.6498 16.6666 11.4998C16.6666 8.73317 14.4416 5.45817 9.99992 1.6665ZM6.52492 11.6665C6.83325 11.6665 7.08325 11.8832 7.14158 12.1832C7.48325 14.0332 9.04158 14.6665 10.1749 14.5748C10.5333 14.5582 10.8333 14.8415 10.8333 15.1998C10.8333 15.5332 10.5666 15.8082 10.2333 15.8248C8.45825 15.9332 6.38325 14.9165 5.90825 12.3915C5.89377 12.3022 5.89887 12.2107 5.92319 12.1236C5.94751 12.0364 5.99048 11.9555 6.04912 11.8866C6.10777 11.8176 6.18068 11.7622 6.26283 11.7242C6.34498 11.6862 6.43441 11.6665 6.52492 11.6665Z" fill="#11CF74"/>
</svg>
