<svg width="16" height="16" viewBox="0 0 16 16" fill="none" xmlns="http://www.w3.org/2000/svg">
<path d="M10 2.66683V1.3335V2.66683ZM10 2.66683V4.00016V2.66683ZM10 2.66683H7H10ZM2 6.66683V12.6668C2 13.0205 2.14048 13.3596 2.39052 13.6096C2.64057 13.8597 2.97971 14.0002 3.33333 14.0002H12.6667C13.0203 14.0002 13.3594 13.8597 13.6095 13.6096C13.8595 13.3596 14 13.0205 14 12.6668V6.66683H2Z" fill="#11CF74" stroke="#11CF74" stroke-linecap="round" stroke-linejoin="round"/>
<path d="M2 6.66699V4.00033C2 3.6467 2.14048 3.30756 2.39052 3.05752C2.64057 2.80747 2.97971 2.66699 3.33333 2.66699H4.66667" stroke="#11CF74" stroke-linecap="round" stroke-linejoin="round"/>
<path d="M4.66669 1.3335V4.00016" stroke="#11CF74" stroke-linecap="round" stroke-linejoin="round"/>
<path d="M14 6.66699V4.00033C14 3.6467 13.8595 3.30756 13.6095 3.05752C13.3594 2.80747 13.0203 2.66699 12.6666 2.66699H12.3333" stroke="#11CF74" stroke-linecap="round" stroke-linejoin="round"/>
</svg>
