<svg width="20" height="20" viewBox="0 0 20 20" fill="none" xmlns="http://www.w3.org/2000/svg">
<path fill-rule="evenodd" clip-rule="evenodd" d="M18.125 10.9377H3.125V3.90645C3.12428 3.64166 3.17608 3.37936 3.27741 3.13472C3.37875 2.89008 3.5276 2.66798 3.71535 2.48126L3.73098 2.46563C4.02522 2.17182 4.403 1.97602 4.8127 1.90497C5.2224 1.83392 5.64405 1.8911 6.02004 2.06868C5.66495 2.65907 5.51736 3.35119 5.60072 4.03508C5.68408 4.71896 5.99361 5.35537 6.48012 5.84317L6.90789 6.27095L6.12051 7.05837L7.00434 7.9422L7.79172 7.15481L12.1546 2.79204L12.942 2.00466L12.0581 1.12079L11.2707 1.90817L10.8429 1.4804C10.3307 0.969668 9.6556 0.654835 8.93515 0.590763C8.2147 0.52669 7.4946 0.717441 6.90035 1.12977C6.27372 0.734037 5.53112 0.563194 4.79455 0.645311C4.05798 0.727428 3.37124 1.05762 2.84715 1.58165L2.83152 1.59727C2.52732 1.89981 2.28615 2.25968 2.12196 2.65605C1.95777 3.05242 1.87383 3.47742 1.875 3.90645V10.9377H0.625V12.1877H1.875V13.3869C1.87497 13.4877 1.89122 13.5878 1.92312 13.6834L3.08594 17.1716C3.14799 17.3584 3.26731 17.5209 3.42695 17.6359C3.5866 17.751 3.77844 17.8129 3.97523 17.8127H4.47914L4.02344 19.3752H5.32551L5.78125 17.8127H13.9102L14.3789 19.3752H15.6836L15.2148 17.8127H16.0246C16.2214 17.8129 16.4133 17.7511 16.573 17.636C16.7327 17.5209 16.852 17.3584 16.9141 17.1716L18.0768 13.6834C18.1087 13.5878 18.125 13.4877 18.125 13.3869V12.1877H19.375V10.9377H18.125Z" fill="#4466E3"/>
</svg>
