<svg width="12" height="12" viewBox="0 0 12 12" fill="none" xmlns="http://www.w3.org/2000/svg">
<path d="M10 5C10 7.209 6 11 6 11C6 11 2 7.209 2 5C2 3.93913 2.42143 2.92172 3.17157 2.17157C3.92172 1.42143 4.93913 1 6 1C7.06087 1 8.07828 1.42143 8.82843 2.17157C9.57857 2.92172 10 3.93913 10 5Z" fill="#FA712D"/>
<path d="M6.00039 5.39995C6.15952 5.39995 6.31213 5.33674 6.42465 5.22422C6.53718 5.11169 6.60039 4.95908 6.60039 4.79995C6.60039 4.64082 6.53718 4.48821 6.42465 4.37569C6.31213 4.26317 6.15952 4.19995 6.00039 4.19995C5.84126 4.19995 5.68865 4.26317 5.57613 4.37569C5.4636 4.48821 5.40039 4.64082 5.40039 4.79995C5.40039 4.95908 5.4636 5.11169 5.57613 5.22422C5.68865 5.33674 5.84126 5.39995 6.00039 5.39995Z" fill="white" stroke="white" stroke-width="1.25" stroke-linecap="round" stroke-linejoin="round"/>
</svg>
