<svg width="12" height="12" viewBox="0 0 12 12" fill="none" xmlns="http://www.w3.org/2000/svg">
<path d="M10 5C10 7.209 6 11 6 11C6 11 2 7.209 2 5C2 3.93913 2.42143 2.92172 3.17157 2.17157C3.92172 1.42143 4.93913 1 6 1C7.06087 1 8.07828 1.42143 8.82843 2.17157C9.57857 2.92172 10 3.93913 10 5Z" fill="#FA712D"/>
<path d="M5.9999 5.4002C6.15903 5.4002 6.31164 5.33698 6.42417 5.22446C6.53669 5.11194 6.5999 4.95933 6.5999 4.8002C6.5999 4.64107 6.53669 4.48845 6.42417 4.37593C6.31164 4.26341 6.15903 4.2002 5.9999 4.2002C5.84077 4.2002 5.68816 4.26341 5.57564 4.37593C5.46312 4.48845 5.3999 4.64107 5.3999 4.8002C5.3999 4.95933 5.46312 5.11194 5.57564 5.22446C5.68816 5.33698 5.84077 5.4002 5.9999 5.4002Z" fill="white" stroke="white" stroke-width="1.25" stroke-linecap="round" stroke-linejoin="round"/>
</svg>
