<svg width="19" height="20" viewBox="0 0 19 20" fill="none" xmlns="http://www.w3.org/2000/svg">
<path d="M4.104 20C4.104 19.7749 4.06071 19.6623 3.97413 19.6623L3.37673 19.9481C3.37673 19.8268 3.30746 19.7403 3.16893 19.6883L2.96114 19.6623C2.82261 19.6623 2.64945 19.7229 2.44166 19.8442C2.40703 19.7576 2.36374 19.671 2.31179 19.5844C2.25984 19.4978 2.21655 19.4199 2.18192 19.3507C1.95681 18.9178 1.7317 18.4416 1.5066 17.9221C1.2988 17.3853 1.09967 16.8745 0.909192 16.3896C0.736032 15.9048 0.597504 15.5238 0.493608 15.2468C0.424344 15.0216 0.346422 14.684 0.259842 14.2338C0.173262 13.7836 0.0866816 13.2121 0.000101533 12.5195C0.190578 12.6407 0.337764 12.7013 0.44166 12.7013C0.562872 12.7013 0.675426 12.5195 0.779322 12.1558C0.83127 12.2251 0.926509 12.2597 1.06504 12.2597C1.16893 12.2597 1.24685 12.2251 1.2988 12.1558L1.71439 11.5325L2.18192 11.6883H2.20789C2.24253 11.6883 2.27716 11.671 2.31179 11.6364C2.34642 11.6017 2.39837 11.5671 2.46763 11.5325C2.60616 11.4459 2.71006 11.4026 2.77932 11.4026L2.85724 11.4286C3.29014 11.6364 3.5672 12.0173 3.68841 12.5714C4.0001 13.8874 4.31179 14.5455 4.62348 14.5455C4.93517 14.5455 5.2988 14.2165 5.71439 13.5584C5.92218 13.2294 6.12997 12.8485 6.33776 12.4156C6.56287 11.9827 6.78798 11.4978 7.01309 10.961C7.04772 11.1688 7.08235 11.2727 7.11699 11.2727C7.20357 11.2727 7.35075 11.0563 7.55854 10.6234C7.78365 10.1905 8.13863 9.59307 8.62348 8.83117C8.90053 8.36364 9.24686 7.8355 9.66244 7.24675C10.0953 6.65801 10.5542 6.05195 11.0391 5.42857C11.5239 4.8052 11.9914 4.21645 12.4417 3.66234C12.9092 3.10823 13.3248 2.63204 13.6884 2.23377C14.0521 1.8355 14.3204 1.57576 14.4936 1.45455C15.1516 1.00433 15.6711 0.571429 16.0521 0.155845C16.0347 0.277057 16.0088 0.389611 15.9741 0.493508C15.9568 0.580088 15.9482 0.640693 15.9482 0.675325C15.9482 0.744589 15.9828 0.779221 16.0521 0.779221L16.7793 0.415585V0.519481C16.7793 0.65801 16.814 0.727274 16.8832 0.727274C16.9352 0.727274 17.0391 0.649352 17.1949 0.493508C17.3508 0.337663 17.4373 0.225109 17.4546 0.155845L17.4027 0.519481L18.2858 1.30046e-06L18.078 0.467534C18.3551 0.277057 18.5542 0.181819 18.6754 0.181819C18.7447 0.181819 18.7966 0.225109 18.8313 0.311689C18.8659 0.380953 18.8832 0.450217 18.8832 0.519481C18.8832 0.623377 18.8399 0.744589 18.7533 0.883118C18.6668 1.02165 18.5542 1.18615 18.4157 1.37662C18.3118 1.51515 18.1386 1.72294 17.8962 2C17.6711 2.25974 17.3248 2.64935 16.8572 3.16883C16.3897 3.671 15.7663 4.3723 14.9871 5.27273C14.7793 5.49784 14.459 5.8961 14.0261 6.46753C13.5932 7.02165 13.0997 7.671 12.5456 8.41559C12.0088 9.14286 11.472 9.87879 10.9352 10.6234C10.3984 11.368 9.92218 12.0433 9.5066 12.6494C9.09101 13.2381 8.79664 13.6797 8.62348 13.974L7.01309 16.7013C6.66677 17.29 6.38105 17.7749 6.15595 18.1558C5.93084 18.5195 5.75768 18.7706 5.63647 18.9091C5.37673 19.2208 5.09101 19.4978 4.77932 19.7403L4.54556 19.6104L4.33776 19.7403L4.104 20Z" fill="white"/>
</svg>
