<svg width="8" height="8" viewBox="0 0 8 8" fill="none" xmlns="http://www.w3.org/2000/svg">
<path d="M2.63419 2.29479L3.67358 0.201613C3.70384 0.141036 3.75037 0.0900852 3.80796 0.0544742C3.86555 0.0188631 3.93193 0 3.99964 0C4.06735 0 4.13373 0.0188631 4.19132 0.0544742C4.24891 0.0900852 4.29544 0.141036 4.3257 0.201613L5.36508 2.29479L7.6887 2.63245C7.75572 2.64174 7.81878 2.66969 7.87068 2.71311C7.92258 2.75652 7.96123 2.81365 7.98221 2.87798C8.00319 2.94231 8.00567 3.01124 7.98935 3.07691C7.97304 3.14258 7.93859 3.20233 7.88994 3.24936L6.20883 4.87765L6.60571 7.17806C6.65651 7.47331 6.34446 7.69815 6.07761 7.55893L3.99964 6.47233L1.92127 7.55893C1.65482 7.69855 1.34276 7.47331 1.39357 7.17766L1.79044 4.87725L0.109343 3.24896C0.0609287 3.2019 0.0266873 3.1422 0.0105108 3.07665C-0.00566566 3.0111 -0.00312839 2.94233 0.0178342 2.87815C0.0387967 2.81397 0.0773438 2.75696 0.129094 2.7136C0.180844 2.67023 0.243721 2.64226 0.310579 2.63285L2.63419 2.29479Z" fill="#FDB54A"/>
</svg>
